<svg width="16" height="16" viewBox="0 0 16 16" fill="none" xmlns="http://www.w3.org/2000/svg">
<path d="M0.666687 2.66666V6.66666H4.66669" stroke="#272727" stroke-linecap="round" stroke-linejoin="round"/>
<path d="M15.3333 13.3333V9.33334H11.3333" stroke="#272727" stroke-linecap="round" stroke-linejoin="round"/>
<path d="M13.66 6C13.3219 5.04453 12.7473 4.19027 11.9897 3.51695C11.2322 2.84362 10.3164 2.37318 9.32783 2.14951C8.33928 1.92584 7.31018 1.95623 6.33656 2.23785C5.36294 2.51947 4.47652 3.04314 3.76002 3.76L0.666687 6.66667M15.3334 9.33334L12.24 12.24C11.5235 12.9569 10.6371 13.4805 9.66348 13.7622C8.68986 14.0438 7.66076 14.0742 6.67221 13.8505C5.68366 13.6268 4.76789 13.1564 4.01033 12.4831C3.25278 11.8097 2.67813 10.9555 2.34002 10" stroke="#272727" stroke-linecap="round" stroke-linejoin="round"/>
</svg>
